<?xml version="1.0" encoding="UTF-8"?><svg id="Layer_1" xmlns="http://www.w3.org/2000/svg" viewBox="0 0 422 504.5"><defs><style>.cls-1{fill:#ffcc36;}.cls-1,.cls-2{stroke:#000;stroke-miterlimit:10;stroke-width:5px;}.cls-2{fill:#fff;}</style></defs><g><path class="cls-2" d="m310.34,271.75c-18.62,22.9-40.53,38.73-60.69,51.17-33.96,19.79-65.07,29.97-95.31,31.38l-4.6.28c-6.79,0-14.24-.28-21.91-1.98,3.73,10.46,23.56,45.33,101.23,42.12,106.33-9.37,95.09-90.75,90.49-100.93-3.29-7.07-7.01-14.42-9.2-22.05Z"/><path class="cls-2" d="m317.57,173.93c-11.17-7.07-22.57-8.2-33.52-7.07,11.61,1.13,23.22,7.63,31.11,20.64,0,0,0,.28.22.28,1.1,1.41,1.75,3.11,2.41,4.81,3.5,10.18-.88,23.18-7.89,33.93,0,.28-.22.57-.44.57-2.19-15.27-13.58-24.88-22.35-35.91-5.48-6.78-10.08-14.42-15.12-21.77l-.44-.56c-1.97-2.83-3.72-5.65-5.7-8.2-28.92-35.62-69.89-29.97-100.13-.56-20.82,20.07-55.87,55.69-55,91.6.44,23.75,14.68,44.1,15.34,67.85.22,2.55,0,5.09-.22,7.63-6.36-.57-12.71-1.98-18.41-5.09-6.13-3.11-11.17-9.61-12.05-18.66-.88-9.05,1.53-18.94,5.04-27.99-5.26,7.63-9.86,16.96-10.3,28.27-.88,11.59,5.26,23.47,12.71,29.12,15.56,11.87,32.65,13.01,48.86,12.72,32.87-1.7,64.2-13.85,93.56-31.1,28.92-18.09,57.41-40.14,77.12-76.61,4.38-9.33,8.98-19.79,9.2-32.51.44-13.01-5.92-26.29-14.02-31.38Z"/></g><path class="cls-1" d="m253.1,254.58c0,6.58-1.35,12.77-3.68,18.39-1.16,2.32-2.32,4.64-3.68,6.77-1.74,2.52-3.48,4.84-5.61,6.97-8.52,8.52-20.13,13.93-32.9,13.93-3.29,0-6.58-.39-9.68-1.16-20.9-4.26-36.39-22.84-36.39-44.9,0-25.35,20.52-45.87,46.06-45.87s45.87,20.52,45.87,45.87Z"/></svg>